<svg width="878" height="1000" viewBox="0 0 878 1000" fill="none" xmlns="http://www.w3.org/2000/svg">
<path d="M259.89 640.948L77.3529 746.257L513.559 997.868L696.096 892.559L259.89 640.948Z" fill="#C2C2C2"/>
<path d="M191.401 627.242L0 737.665L454.795 1000L646.197 889.577L191.401 627.242Z" fill="#5E5E5E"/>
<path d="M190.889 634.462L25.7178 729.753L463.416 982.226L628.588 886.935L190.889 634.462Z" fill="#F2F2F2"/>
<path d="M194.956 657.213L175.829 668.248L198.494 681.321L217.621 670.286L194.956 657.213Z" fill="#C4C4C4"/>
<path d="M223.062 672.817L203.936 683.851L428.698 813.498L447.823 802.464L223.062 672.817Z" fill="#C4C4C4"/>
<path d="M489.684 826.605L470.558 837.639L439.472 819.708L458.597 808.674L489.684 826.605Z" fill="#C4C4C4"/>
<path d="M500.605 832.906L481.479 843.94L546.758 881.594L565.884 870.56L500.605 832.906Z" fill="#C4C4C4"/>
<path d="M166.642 678.153L147.516 689.187L522.841 905.681L541.967 894.647L166.642 678.153Z" fill="#C4C4C4"/>
<path d="M141.657 693.756L122.531 704.79L497.856 921.285L516.982 910.251L141.657 693.756Z" fill="#C4C4C4"/>
<path d="M116.673 709.36L97.5476 720.394L472.873 936.888L491.998 925.854L116.673 709.36Z" fill="#C4C4C4"/>
<path d="M91.6893 724.962L72.5635 735.996L447.889 952.491L467.014 941.456L91.6893 724.962Z" fill="#C4C4C4"/>
<path d="M276.182 463.029L877.448 809.941L877.43 346.912L276.164 -0.000104081L276.182 463.029Z" fill="#3A3A3C"/>
<path d="M241.828 475.512L843.094 822.424L843.076 359.395L241.811 12.483L241.828 475.512Z" fill="#C3C3C3"/>
<path d="M849.958 373.904L204.536 1.51514L204.539 82.9582L849.961 455.347L849.958 373.904Z" fill="#F1A423"/>
<path d="M208.209 476.481L809.475 823.394L809.458 360.365L208.192 13.4527L208.209 476.481Z" fill="#C2C2C2"/>
<path d="M808.185 358.589L206.286 11.3113L206.305 516.541L808.204 863.818L808.185 358.589Z" fill="#F2F2F2"/>
<path d="M780.23 679.077L538.088 539.368L538.088 550.391L780.231 690.1L780.23 679.077Z" fill="#C2C2C2"/>
<path d="M780.312 701.17L538.088 561.414L538.088 572.436L780.312 712.192L780.312 701.17Z" fill="#C2C2C2"/>
<path d="M668.905 658.936L538.088 583.459L538.088 594.482L668.905 669.959L668.905 658.936Z" fill="#C2C2C2"/>
<path d="M632 383.303L592.631 360.588L592.631 367.549L632 390.264L632 383.303Z" fill="#B1B1B1"/>
<path d="M581.143 341.493L538.088 316.652L538.089 349.649L581.145 374.491L581.143 341.493Z" fill="#5E5E5E"/>
<path d="M641.113 387.86L680.483 410.575L680.483 417.536L641.114 394.821L641.113 387.86Z" fill="#B1B1B1"/>
<mask id="mask0" mask-type="alpha" maskUnits="userSpaceOnUse" x="538" y="381" width="243" height="271">
<path d="M779.766 522.24L538.954 383.299L538.959 510.733L779.77 649.674L779.766 522.24Z" fill="#F2F2F2" stroke="#5E5E5E" stroke-width="2"/>
</mask>
<g mask="url(#mask0)">
<path d="M779.766 522.24L538.954 383.299L538.959 510.733L779.77 649.674L779.766 522.24Z" fill="#F2F2F2" stroke="#5E5E5E" stroke-width="2"/>
<path d="M693.774 544.087C654.773 519.253 644.749 600.369 632.023 603.68L833.528 684.816V676.538C833.528 676.538 772.86 659.229 747.943 627.621C723.025 596.014 732.775 568.922 693.774 544.087Z" fill="#C3C3C3"/>
<path d="M765.339 535.192C813.351 541.526 802.596 652.793 808.969 662.634L580.51 579.89L587.25 574.253C587.25 574.253 644.575 598.627 688.065 591.955C731.555 585.283 717.327 528.857 765.339 535.192Z" fill="#B1B1B1"/>
<path fill-rule="evenodd" clip-rule="evenodd" d="M540.713 386.344L778.007 523.256L778.012 646.629L540.717 509.717L540.713 386.344ZM538.088 381.8L538.093 511.233L780.637 651.173L780.632 521.74L538.088 381.8Z" fill="#5E5E5E"/>
<path d="M590.841 502.791L562.329 486.34L562.33 506.593L590.842 523.044L590.841 502.791Z" fill="#F1A423"/>
<path d="M675.887 491.998L559.299 424.73L559.299 439.88L675.888 507.148L675.887 491.998Z" fill="#C3C3C3"/>
<path d="M611.473 483.112L559.299 453.008L559.299 468.159L611.474 498.262L611.473 483.112Z" fill="#5E5E5E"/>
<path d="M587.811 502.791L559.299 486.34L559.3 506.593L587.812 523.044L587.811 502.791Z" fill="#FBBB51"/>
</g>
<path d="M735.026 442.391L695.656 419.677L695.656 426.637L735.026 449.352L735.026 442.391Z" fill="#B1B1B1"/>
<path d="M507.235 185.568L206.286 11.929L206.305 516.541L507.254 690.18L507.235 185.568Z" fill="#F2F2F2"/>
<mask id="mask1" mask-type="alpha" maskUnits="userSpaceOnUse" x="668" y="528" width="158" height="221">
<path d="M824.636 620.05L669.016 530.262L669.021 657.696L824.641 747.484L824.636 620.05Z" fill="#F2F2F2" stroke="#5E5E5E" stroke-width="2"/>
</mask>
<g mask="url(#mask1)">
<path d="M824.795 620.142L669.016 530.262L669.021 657.696L824.8 747.575L824.795 620.142Z" fill="#F2F2F2" stroke="#5E5E5E" stroke-width="2"/>
<path d="M823.836 691.049C784.835 666.215 774.811 747.331 762.084 750.643L963.59 831.778V823.5C963.59 823.5 902.921 806.191 878.004 774.584C853.087 742.976 862.837 715.884 823.836 691.049Z" fill="#C3C3C3"/>
<path d="M895.4 682.154C943.412 688.489 932.657 799.756 939.03 809.597L710.572 726.853L717.311 721.215C717.311 721.215 774.637 745.589 818.126 738.918C861.616 732.246 847.389 675.82 895.4 682.154Z" fill="#B1B1B1"/>
<path fill-rule="evenodd" clip-rule="evenodd" d="M670.774 533.307L823.434 621.387L823.439 744.76L670.779 656.68L670.774 533.307ZM668.15 528.762L668.154 658.196L826.064 749.305L826.059 619.871L668.15 528.762Z" fill="#5E5E5E"/>
<path d="M805.949 638.96L689.36 571.692L689.361 586.843L805.949 654.111L805.949 638.96Z" fill="#C3C3C3"/>
<path d="M741.536 630.074L689.361 599.971L689.362 615.121L741.536 645.225L741.536 630.074Z" fill="#5E5E5E"/>
<path d="M720.904 649.753L692.391 633.303L692.392 653.556L720.904 670.006L720.904 649.753Z" fill="#F1A423"/>
<path d="M717.873 649.753L689.361 633.303L689.362 653.556L717.874 670.006L717.873 649.753Z" fill="#FBBB51"/>
</g>
<path d="M287.343 481.038L304.009 454.523" stroke="#FBBB51" stroke-width="2"/>
<path d="M514.807 268.792L502.698 261.805L502.714 688.201L514.824 695.188L514.807 268.792Z" fill="#B1B1B1"/>
<path d="M842.384 378.04L195.445 4.77563L195.448 86.2187L842.387 459.483L842.384 378.04Z" fill="#FBBB51"/>
<path d="M792.487 374.781L760.931 356.575L760.933 392.808L792.488 411.014L792.487 374.781Z" fill="#F2F2F2"/>
<path d="M751.453 378.229L719.898 360.023L719.898 368.035L751.454 386.242L751.453 378.229Z" fill="#F2F2F2"/>
<path d="M236.588 199.992L250.223 195.92L236.587 175.749" stroke="#FBBB51" stroke-width="3" stroke-linecap="round" stroke-linejoin="round"/>
<path d="M282.619 445.433L265.374 451.525L282.619 477.517" stroke="#FBBB51" stroke-width="2" stroke-linecap="round" stroke-linejoin="round"/>
<path d="M307.799 488.123L325.044 482.031L307.796 456.039" stroke="#FBBB51" stroke-width="2" stroke-linecap="round" stroke-linejoin="round"/>
<path fill-rule="evenodd" clip-rule="evenodd" d="M269.919 197.718C269.919 196.463 270.375 195.709 270.938 196.033L477.543 315.238C478.106 315.563 478.562 316.844 478.562 318.099C478.562 319.354 478.106 320.108 477.543 319.783L270.939 200.579C270.375 200.254 269.919 198.973 269.919 197.718Z" fill="#C2C2C2"/>
<path fill-rule="evenodd" clip-rule="evenodd" d="M269.919 231.739C269.919 230.484 270.375 229.73 270.938 230.055L477.543 349.26C478.106 349.584 478.562 350.865 478.562 352.12C478.562 353.376 478.106 354.13 477.543 353.805L270.939 234.6C270.375 234.275 269.919 232.995 269.919 231.739Z" fill="#C2C2C2"/>
<path fill-rule="evenodd" clip-rule="evenodd" d="M269.919 265.761C269.919 264.506 270.375 263.752 270.938 264.076L477.543 383.281C478.106 383.606 478.562 384.887 478.562 386.142C478.562 387.397 478.106 388.151 477.543 387.826L270.939 268.622C270.375 268.297 269.919 267.016 269.919 265.761Z" fill="#C2C2C2"/>
<path fill-rule="evenodd" clip-rule="evenodd" d="M269.919 299.782C269.919 298.527 270.375 297.773 270.938 298.098L477.543 417.302C478.106 417.627 478.562 418.908 478.562 420.163C478.562 421.418 478.106 422.173 477.543 421.848L270.939 302.643C270.375 302.318 269.919 301.038 269.919 299.782Z" fill="#C2C2C2"/>
<path fill-rule="evenodd" clip-rule="evenodd" d="M269.919 333.803C269.919 332.548 270.375 331.794 270.938 332.119L477.543 451.323C478.106 451.648 478.562 452.929 478.562 454.184C478.562 455.439 478.106 456.194 477.543 455.869L270.939 336.664C270.375 336.339 269.919 335.059 269.919 333.803Z" fill="#C2C2C2"/>
<path fill-rule="evenodd" clip-rule="evenodd" d="M269.919 367.826C269.919 366.57 270.375 365.816 270.938 366.141L477.543 485.346C478.106 485.671 478.562 486.951 478.562 488.207C478.562 489.462 478.106 490.216 477.543 489.891L270.939 370.686C270.375 370.362 269.919 369.081 269.919 367.826Z" fill="#C2C2C2"/>
<path fill-rule="evenodd" clip-rule="evenodd" d="M269.919 401.847C269.919 400.591 270.375 399.837 270.938 400.162L477.543 519.367C478.106 519.692 478.562 520.972 478.562 522.228C478.562 523.483 478.106 524.237 477.543 523.912L270.939 404.707C270.375 404.383 269.919 403.102 269.919 401.847Z" fill="#C2C2C2"/>
<path d="M225.625 83.725C231.285 86.9905 235.872 83.0721 235.872 74.973C235.872 66.8739 231.284 57.6611 225.624 54.3956C219.964 51.1301 215.376 55.0485 215.377 63.1476C215.377 71.2467 219.965 80.4596 225.625 83.725Z" fill="white"/>
<path d="M251.381 100.391C257.041 103.656 261.629 99.7378 261.628 91.6386C261.628 83.5395 257.04 74.3267 251.38 71.0612C245.72 67.7958 241.132 71.7142 241.133 79.8133C241.133 87.9124 245.721 97.1252 251.381 100.391Z" fill="white"/>
<path d="M277.137 117.056C282.797 120.322 287.385 116.403 287.385 108.304C287.384 100.205 282.796 90.9924 277.136 87.7269C271.477 84.4614 266.889 88.3798 266.889 96.4789C266.889 104.578 271.478 113.791 277.137 117.056Z" fill="white"/>
<path d="M700.408 701.822L542.262 610.577L542.264 652.441L700.409 743.687L700.408 701.822Z" fill="#F1A423"/>
<path d="M695.311 703.63L537.853 612.781L537.854 653.081L695.313 743.93L695.311 703.63Z" fill="#FBBB51"/>
<mask id="mask2" mask-type="alpha" maskUnits="userSpaceOnUse" x="537" y="612" width="159" height="133">
<path d="M695.751 703.884L537.853 612.781L537.854 653.084L695.752 744.187L695.751 703.884Z" fill="#FBBB51"/>
</mask>
<g mask="url(#mask2)">
<path d="M523.459 649.969L729.51 712.087" stroke="#F1A423" stroke-width="2"/>
<path d="M522.701 603.001L706.783 752.236" stroke="#F1A423" stroke-width="2"/>
</g>
</svg>
